<svg xmlns="http://www.w3.org/2000/svg" viewBox="0 0 100 100" width="100" height="100">
  <path d="M50 20c-16.6 0-30 13.4-30 30s13.4 30 30 30 30-13.4 30-30-13.4-30-30-30zm0 55c-13.8 0-25-11.2-25-25s11.2-25 25-25 25 11.2 25 25-11.2 25-25 25z" fill="#3498db"/>
  <circle cx="50" cy="50" r="10" fill="#3498db"/>
  <rect x="20" y="48" width="15" height="4" fill="#3498db"/>
  <rect x="65" y="48" width="15" height="4" fill="#3498db"/>
  <rect x="48" y="20" width="4" height="15" fill="#3498db"/>
  <rect x="48" y="65" width="4" height="15" fill="#3498db"/>
</svg>
