<svg xmlns="http://www.w3.org/2000/svg" width="200" height="200" viewBox="0 0 200 200"><rect width="100%" height="100%" fill="#ffffff"/><path d="M125,80 C125,68.95 116.05,60 105,60 C93.95,60 85,68.95 85,80 C85,91.05 93.95,100 105,100 C116.05,100 125,91.05 125,80 Z" fill="#000000"/><path d="M155,80 C155,113.14 132.61,140 105,140 C77.39,140 55,113.14 55,80 C55,46.86 77.39,20 105,20 C132.61,20 155,46.86 155,80 Z M145,80 C145,52.39 127.61,30 105,30 C82.39,30 65,52.39 65,80 C65,107.61 82.39,130 105,130 C127.61,130 145,107.61 145,80 Z" fill="#000000"/></svg>
